<?xml version="1.0" encoding="utf-8"?>
<!-- Generator: Adobe Illustrator 23.1.0, SVG Export Plug-In . SVG Version: 6.00 Build 0)  -->
<svg version="1.1" id="Layer_1" xmlns="http://www.w3.org/2000/svg" xmlns:xlink="http://www.w3.org/1999/xlink" x="0px" y="0px"
	 viewBox="0 0 32 32" style="enable-background:new 0 0 32 32;" xml:space="preserve">
<style type="text/css">
	.st0{display:none;}
	.st1{display:inline;fill:#FFFFFF;stroke:#000000;stroke-miterlimit:10;}
	.st2{display:inline;}
	.st3{fill:#FFFFFF;}
</style>
<g class="st0">
	<polygon class="st1" points="11.7,10.9 4.6,16.4 15.4,27.2 21.1,20.3 	"/>
	<path class="st2" d="M22.4,11.3c1.9-1.4,2.8-1.9,3.3-2.3c1-1,1-2.6,0-3.6s-2.6-1-3.6,0c-0.5,0.5-1.1,1.5-2.5,3.5
		c-0.2,0.3-0.8,1.2-1.2,0.9l-3.3-2.2l-2.9,2l10.3,10.3l2-2.9l-2.6-4C21.4,12.5,21.5,11.9,22.4,11.3z M23.7,6.3
		c0.6,0,1.1,0.5,1.1,1.1s-0.5,1.1-1.1,1.1S22.6,8,22.6,7.4S23.1,6.3,23.7,6.3z"/>
	<polygon class="st2" points="6.8,18.5 12.2,14 7.4,19.1 	"/>
	<polygon class="st2" points="8.8,20.5 14.1,15.9 9.4,21.1 	"/>
	<polygon class="st2" points="10.7,22.4 16.1,17.9 11.3,23 	"/>
	<polygon class="st2" points="12.6,24.4 18,19.8 13.3,25 	"/>
</g>
<g>
	<g>
		<path class="st3" d="M4.2,13.1c0-0.8,0-1.5,0-2.2c0-0.5,0.4-1,1-1l0,0c0.5,0,0.9,0.4,1,0.9l0.1,1.1l0,0c0.6-1.1,2-2.2,3.9-2.2
			c1.7,0,4.2,1,4.2,5.1V21c0,0.5-0.4,1-1,1h-0.2c-0.5,0-1-0.4-1-1v-6c0-1.9-0.7-3.5-2.8-3.5c-1.4,0-2.5,1-2.9,2.2
			c-0.1,0.3-0.1,0.6-0.1,1v6.2c0,0.5-0.4,1-1,1H5.2c-0.5,0-1-0.4-1-1V13.1z"/>
		<path class="st3" d="M28.7,15.8c0,4.4-3.1,6.3-5.9,6.3c-3.2,0-5.7-2.4-5.7-6.1c0-4,2.6-6.3,5.9-6.3C26.4,9.6,28.7,12.1,28.7,15.8z
			 M19.3,15.9c0,2.6,1.5,4.6,3.6,4.6s3.6-1.9,3.6-4.6c0-2-1-4.6-3.6-4.6S19.3,13.6,19.3,15.9z"/>
	</g>
</g>
</svg>
