<?xml version="1.0" encoding="utf-8"?>
<!-- Generator: Adobe Illustrator 23.1.0, SVG Export Plug-In . SVG Version: 6.00 Build 0)  -->
<svg version="1.1" id="Layer_1" xmlns="http://www.w3.org/2000/svg" xmlns:xlink="http://www.w3.org/1999/xlink" x="0px" y="0px"
	 viewBox="0 0 32 32" style="enable-background:new 0 0 32 32;" xml:space="preserve">
<style type="text/css">
	.st0{fill:none;stroke:#FFFFFF;stroke-width:2;stroke-linecap:round;stroke-miterlimit:10;}
	.st1{display:none;fill:none;stroke:#FFFFFF;stroke-width:1.25;stroke-miterlimit:10;}
</style>
<g>
	<path class="st0" d="M6.6,16.1c-1.4,0.4-2.3,1.7-2.3,3.2l0,0c0,1.9,1.5,3.4,3.4,3.4h16.7c1.9,0,3.4-1.5,3.4-3.4l0,0
		c0-1.9-1.5-3.4-3.4-3.4"/>
	<path class="st0" d="M8.1,17.5c-0.9-1-1.5-2.3-1.5-3.7c0-3,2.4-5.4,5.5-5.4c2.4,0,4.5,1.6,5.2,3.8"/>
	<path class="st0" d="M25.7,16.1c0.1-0.3,0.1-0.6,0.1-0.9c0-2.6-2.1-4.8-4.8-4.8c-2,0-3.6,1.2-4.4,2.9"/>
	<path class="st1" d="M24.4,15.9H7.6c-1.9,0-3.4,1.5-3.4,3.4l0,0c0,1.9,1.5,3.4,3.4,3.4h16.7c1.9,0,3.4-1.5,3.4-3.4l0,0
		C27.7,17.4,26.2,15.9,24.4,15.9z"/>
	<circle class="st1" cx="12" cy="13.5" r="5.8"/>
	<circle class="st1" cx="21.1" cy="15.1" r="4.8"/>
</g>
</svg>
