<?xml version="1.0" encoding="utf-8"?>
<!-- Generator: Adobe Illustrator 23.1.0, SVG Export Plug-In . SVG Version: 6.00 Build 0)  -->
<svg version="1.1" id="Layer_1" xmlns="http://www.w3.org/2000/svg" xmlns:xlink="http://www.w3.org/1999/xlink" x="0px" y="0px"
	 viewBox="0 0 32 32" style="enable-background:new 0 0 32 32;" xml:space="preserve">
<style type="text/css">
	.st0{fill:none;stroke:#FFFFFF;stroke-linejoin:round;stroke-miterlimit:10;}
	.st1{fill:#FFFFFF;}
</style>
<path class="st0" d="M14.3,13.5l4,3.9L10.6,25c-0.7,0.7-2.9,0.1-2.9,0.1L5.5,27l-0.9-0.9L6.4,24c0,0-0.5-2.2,0.2-2.9L14.3,13.5z"/>
<g>
	<path class="st1" d="M21.1,14.3L21.1,14.3l1,1.1c0.6,0.6,0.6,1.6,0,2.2l0,0c-0.6,0.6-1.6,0.6-2.2,0L14.2,12c-0.6-0.6-0.6-1.6,0-2.2
		l0,0c0.6-0.6,1.6-0.6,2.2,0l0.8,0.8c0,0,0,0,0.1-0.1l5.3-5.3C23.5,4.3,25,4,26.1,4.8c1.4,1,1.5,2.9,0.4,4.1L21.1,14.3z"/>
</g>
</svg>
