<?xml version="1.0" encoding="utf-8"?>
<!-- Generator: Adobe Illustrator 23.1.0, SVG Export Plug-In . SVG Version: 6.00 Build 0)  -->
<svg version="1.1" id="Layer_1" xmlns="http://www.w3.org/2000/svg" xmlns:xlink="http://www.w3.org/1999/xlink" x="0px" y="0px"
	 viewBox="0 0 32 32" style="enable-background:new 0 0 32 32;" xml:space="preserve">
<style type="text/css">
	.st0{fill:#FFFFFF;}
</style>
<path class="st0" d="M10,12.2c2.2-0.7,6.1-3.2,8.3-4c0.4-0.1,0.7,0,1,0.2c0.9,0.8,3,2.8,3.9,3.6c0.3,0.3,0.4,0.6,0.3,1
	c-0.6,2.3-2.8,6.3-3.4,8.6c-0.1,0.4-0.4,0.6-0.8,0.7C17,22.8,12,24.5,8.4,25.6c-0.3,0.1-0.6-0.3-0.3-0.5c1.6-1.7,5.1-5.5,6.2-6.6
	c0.2-0.2,0.4-0.3,0.7-0.2c0.5,0.1,1.1-0.1,1.4-0.5c0.6-0.6,0.6-1.6-0.1-2.2c-0.6-0.6-1.6-0.6-2.2,0.1c-0.4,0.4-0.5,1-0.4,1.5
	c0.1,0.2,0,0.5-0.2,0.7l-6.2,6.6c-0.2,0.3-0.7,0-0.6-0.3c1-3.8,2.3-8.9,2.6-11.2C9.4,12.6,9.6,12.3,10,12.2z"/>
<path class="st0" d="M24.7,11.1l-4.6-4.2C20,6.7,19.9,6.5,20,6.3L21.2,3c0-0.3,0.4-0.5,0.7-0.3L28.7,9c0.2,0.2,0.1,0.6-0.2,0.7
	l-3.1,1.5C25.1,11.3,24.9,11.2,24.7,11.1z"/>
</svg>
