<?xml version="1.0" encoding="utf-8"?>
<!-- Generator: Adobe Illustrator 23.1.0, SVG Export Plug-In . SVG Version: 6.00 Build 0)  -->
<svg version="1.1" id="Layer_1" xmlns="http://www.w3.org/2000/svg" xmlns:xlink="http://www.w3.org/1999/xlink" x="0px" y="0px"
	 viewBox="0 0 32 32" style="enable-background:new 0 0 32 32;" xml:space="preserve">
<style type="text/css">
	.st0{display:none;}
	.st1{display:inline;fill:#FFFFFF;stroke:#000000;stroke-miterlimit:10;}
	.st2{display:inline;}
	.st3{fill:#FFFFFF;}
</style>
<g class="st0">
	<polyline class="st1" points="21.7,7.6 24,5.3 26.3,7.4 24,9.7 	"/>
	<polygon class="st1" points="24.8,10.7 11.8,23.8 6.2,25.3 7.7,19.7 20.7,6.7 	"/>
	<path class="st2" d="M6.9,22.4c1.1,0,2.2,1.2,2.2,2.2l-2.8,0.7L6.9,22.4z"/>
	<rect x="9.9" y="15.2" transform="matrix(0.707 -0.7072 0.7072 0.707 -9.0763 14.7222)" class="st2" width="6.6" height="6.2"/>
	<polygon class="st2" points="18.7,16.4 20.2,17.8 24.9,13.1 23.4,11.7 	"/>
</g>
<g>
	<path class="st3" d="M11.5,11.8c1-1,2.4-1.6,3.7-1.9c1.4-0.3,2.8,0.2,3.8,1.2c0.8,0.8,1.9,1.9,2.7,2.6c0.7,0.7,1.2,1.7,1.3,2.7
		c0.2,1.9-0.3,4.4-2.7,6.9c-4,4.1-11.6,2.3-14.7,1.4c-0.4-0.1-0.4-0.7,0-0.9c2.5-0.9,3.7-1.8,4.3-3.6C10.5,18.3,8.7,14.7,11.5,11.8z
		"/>
	<path class="st3" d="M21.5,5.4l5.8,5.6c0.4,0.4,0.3,1-0.1,1.2l-2.4,1.6c-0.3,0.2-0.7,0.2-1-0.1L18.9,9c-0.3-0.3-0.3-0.7-0.1-1
		l1.5-2.4C20.5,5.1,21.1,5.1,21.5,5.4z"/>
</g>
</svg>
